HIERARCHY
ROOT Hips
{
    OFFSET   0.000000   0.000000   0.000000
    CHANNELS 6 Xposition Yposition Zposition Zrotation Xrotation Yrotation
    JOINT Chest
    {
        OFFSET   0.000000   8.007230   0.000000
        CHANNELS 3 Zrotation Xrotation Yrotation
        JOINT Chest2
        {
            OFFSET   0.000000  22.077100   0.000000
            CHANNELS 3 Zrotation Xrotation Yrotation
            JOINT Neck
            {
                OFFSET   0.000000  23.254700   0.000000
                CHANNELS 3 Zrotation Xrotation Yrotation
                JOINT Head
                {
                    OFFSET   0.000010  14.370000   1.956610
                    CHANNELS 3 Zrotation Xrotation Yrotation
                    End Site
                    {
                        OFFSET   0.000000  19.566000   0.000000
                    }
                }
            }
            JOINT LeftCollar
            {
                OFFSET   3.911900  19.017000  -0.467063
                CHANNELS 3 Zrotation Xrotation Yrotation
                JOINT LeftShoulder
                {
                    OFFSET  10.383700   0.000000   0.000000
                    CHANNELS 3 Zrotation Xrotation Yrotation
                    JOINT LeftElbow
                    {
                        OFFSET  26.662100   0.001671   0.000522
                        CHANNELS 3 Zrotation Xrotation Yrotation
                        JOINT LeftWrist
                        {
                            OFFSET  28.869000   0.000037  -0.000114
                            CHANNELS 3 Zrotation Xrotation Yrotation
                            JOINT LeftFinger0
                            {
                                OFFSET   2.044650  -2.323450   3.252850
                                CHANNELS 3 Zrotation Xrotation Yrotation
                                JOINT LeftFinger01
                                {
                                    OFFSET   3.088140   0.000000   0.000000
                                    CHANNELS 3 Zrotation Xrotation Yrotation
                                    JOINT LeftFinger02
                                    {
                                        OFFSET   2.639460   0.000000   0.000000
                                        CHANNELS 3 Zrotation Xrotation Yrotation
                                        End Site
                                        {
                                            OFFSET   2.582190   0.000000   0.000000
                                        }
                                    }
                                }
                            }
                            JOINT LeftFinger1
                            {
                                OFFSET   8.364480   0.000000   3.252850
                                CHANNELS 3 Zrotation Xrotation Yrotation
                                JOINT LeftFinger11
                                {
                                    OFFSET   4.646930   0.000000   0.000000
                                    CHANNELS 3 Zrotation Xrotation Yrotation
                                    JOINT LeftFinger12
                                    {
                                        OFFSET   2.323470   0.000000   0.000000
                                        CHANNELS 3 Zrotation Xrotation Yrotation
                                        End Site
                                        {
                                            OFFSET   2.273050   0.000000   0.000000
                                        }
                                    }
                                }
                            }
                            JOINT LeftFinger2
                            {
                                OFFSET   8.364490   0.000016   1.078090
                                CHANNELS 3 Zrotation Xrotation Yrotation
                                JOINT LeftFinger21
                                {
                                    OFFSET   5.111620   0.000000   0.000000
                                    CHANNELS 3 Zrotation Xrotation Yrotation
                                    JOINT LeftFinger22
                                    {
                                        OFFSET   2.788150   0.000013   0.000000
                                        CHANNELS 3 Zrotation Xrotation Yrotation
                                        End Site
                                        {
                                            OFFSET   2.727660   0.000000   0.000000
                                        }
                                    }
                                }
                            }
                            JOINT LeftFinger3
                            {
                                OFFSET   7.899780   0.000016  -1.078090
                                CHANNELS 3 Zrotation Xrotation Yrotation
                                JOINT LeftFinger31
                                {
                                    OFFSET   4.646930   0.000000   0.000000
                                    CHANNELS 3 Zrotation Xrotation Yrotation
                                    JOINT LeftFinger32
                                    {
                                        OFFSET   2.323470   0.000000   0.000000
                                        CHANNELS 3 Zrotation Xrotation Yrotation
                                        End Site
                                        {
                                            OFFSET   2.273050   0.000000   0.000000
                                        }
                                    }
                                }
                            }
                            JOINT LeftFinger4
                            {
                                OFFSET   7.435080   0.000000  -3.252850
                                CHANNELS 3 Zrotation Xrotation Yrotation
                                JOINT LeftFinger41
                                {
                                    OFFSET   3.717550   0.000000   0.000000
                                    CHANNELS 3 Zrotation Xrotation Yrotation
                                    JOINT LeftFinger42
                                    {
                                        OFFSET   1.858760   0.000000   0.000000
                                        CHANNELS 3 Zrotation Xrotation Yrotation
                                        End Site
                                        {
                                            OFFSET   1.818440   0.000000   0.000000
                                        }
                                    }
                                }
                            }
                        }
                    }
                }
            }
            JOINT RightCollar
            {
                OFFSET  -3.911900  19.017000  -0.467064
                CHANNELS 3 Zrotation Xrotation Yrotation
                JOINT RightShoulder
                {
                    OFFSET -10.383700   0.000000   0.000000
                    CHANNELS 3 Zrotation Xrotation Yrotation
                    JOINT RightElbow
                    {
                        OFFSET -26.662100   0.001633   0.000260
                        CHANNELS 3 Zrotation Xrotation Yrotation
                        JOINT RightWrist
                        {
                            OFFSET -28.869000  -0.000045  -0.000080
                            CHANNELS 3 Zrotation Xrotation Yrotation
                            JOINT RightFinger0
                            {
                                OFFSET  -2.044660  -2.323490   3.252850
                                CHANNELS 3 Zrotation Xrotation Yrotation
                                JOINT RightFinger01
                                {
                                    OFFSET  -3.088140   0.000000   0.000000
                                    CHANNELS 3 Zrotation Xrotation Yrotation
                                    JOINT RightFinger02
                                    {
                                        OFFSET  -2.639450   0.000000   0.000000
                                        CHANNELS 3 Zrotation Xrotation Yrotation
                                        End Site
                                        {
                                            OFFSET  -2.582190   0.000000   0.000000
                                        }
                                    }
                                }
                            }
                            JOINT RightFinger1
                            {
                                OFFSET  -8.364480   0.000000   3.252850
                                CHANNELS 3 Zrotation Xrotation Yrotation
                                JOINT RightFinger11
                                {
                                    OFFSET  -4.646920   0.000000   0.000000
                                    CHANNELS 3 Zrotation Xrotation Yrotation
                                    JOINT RightFinger12
                                    {
                                        OFFSET  -2.323470   0.000000   0.000000
                                        CHANNELS 3 Zrotation Xrotation Yrotation
                                        End Site
                                        {
                                            OFFSET  -2.273050   0.000000   0.000000
                                        }
                                    }
                                }
                            }
                            JOINT RightFinger2
                            {
                                OFFSET  -8.364480   0.000000   1.078090
                                CHANNELS 3 Zrotation Xrotation Yrotation
                                JOINT RightFinger21
                                {
                                    OFFSET  -5.111610   0.000000   0.000000
                                    CHANNELS 3 Zrotation Xrotation Yrotation
                                    JOINT RightFinger22
                                    {
                                        OFFSET  -2.788160   0.000000   0.000000
                                        CHANNELS 3 Zrotation Xrotation Yrotation
                                        End Site
                                        {
                                            OFFSET  -2.727660   0.000000   0.000000
                                        }
                                    }
                                }
                            }
                            JOINT RightFinger3
                            {
                                OFFSET  -7.899780   0.000000  -1.078090
                                CHANNELS 3 Zrotation Xrotation Yrotation
                                JOINT RightFinger31
                                {
                                    OFFSET  -4.646930   0.000000   0.000000
                                    CHANNELS 3 Zrotation Xrotation Yrotation
                                    JOINT RightFinger32
                                    {
                                        OFFSET  -2.323470   0.000000   0.000000
                                        CHANNELS 3 Zrotation Xrotation Yrotation
                                        End Site
                                        {
                                            OFFSET  -2.273050   0.000000   0.000000
                                        }
                                    }
                                }
                            }
                            JOINT RightFinger4
                            {
                                OFFSET  -7.435090   0.000000  -3.252850
                                CHANNELS 3 Zrotation Xrotation Yrotation
                                JOINT RightFinger41
                                {
                                    OFFSET  -3.717550   0.000000   0.000000
                                    CHANNELS 3 Zrotation Xrotation Yrotation
                                    JOINT RightFinger42
                                    {
                                        OFFSET  -1.858760   0.000000   0.000000
                                        CHANNELS 3 Zrotation Xrotation Yrotation
                                        End Site
                                        {
                                            OFFSET  -1.818440   0.000000   0.000000
                                        }
                                    }
                                }
                            }
                        }
                    }
                }
            }
        }
    }
    JOINT LeftHip
    {
        OFFSET   9.782990   0.000000   0.000000
        CHANNELS 3 Zrotation Xrotation Yrotation
        JOINT LeftKnee
        {
            OFFSET  -0.000063 -41.789100   0.001657
            CHANNELS 3 Zrotation Xrotation Yrotation
            JOINT LeftAnkle
            {
                OFFSET   0.000078 -41.133200  -0.000113
                CHANNELS 3 Zrotation Xrotation Yrotation
                JOINT LeftToe
                {
                    OFFSET   0.000000  -6.358970  14.674500
                    CHANNELS 3 Zrotation Xrotation Yrotation
                    End Site
                    {
                        OFFSET   0.000000   0.000000   3.913200
                    }
                }
            }
        }
    }
    JOINT RightHip
    {
        OFFSET  -9.782990   0.000000   0.000000
        CHANNELS 3 Zrotation Xrotation Yrotation
        JOINT RightKnee
        {
            OFFSET   0.000053 -41.789200   0.000277
            CHANNELS 3 Zrotation Xrotation Yrotation
            JOINT RightAnkle
            {
                OFFSET   0.000030 -41.133200  -0.000150
                CHANNELS 3 Zrotation Xrotation Yrotation
                JOINT RightToe
                {
                    OFFSET   0.000000  -6.358960  14.674500
                    CHANNELS 3 Zrotation Xrotation Yrotation
                    End Site
                    {
                        OFFSET   0.000000   0.000000   3.913200
                    }
                }
            }
        }
    }
}
MOTION
Frames: 4
Frame Time:   0.016667
 -1.563100  89.748000   2.171000   0.271849 -12.255000   0.693080   0.987702   6.890630  -0.889892   2.107080  13.763800  -1.921360   0.287694   6.380200  -0.032606   0.489474  12.936800  13.641500  -4.695720  -0.387141   1.716980 -56.316200  19.302500 -52.320300  -2.161030 -12.591100 -82.042900 -26.825900 -61.995200   1.598890  42.776300  27.491300 -64.119600 -11.225600   0.001961   0.007705  -0.612814   0.000660   0.000737  -7.298380  -1.006260   7.834230  -6.027580  -0.003021   0.002095  -4.219300  -0.002581  -0.000096 -30.487300  -4.026220   6.800960 -46.089900   0.004961  -0.002244 -30.695900   0.000603  -0.001399  -6.744190  -1.576190  13.094100  -6.925220  -0.003577   0.003958  -4.612200  -0.004471   0.002525  -7.991800  -2.468110  17.017600 -12.543000  -0.004794   0.000575  -8.353670  -0.002264   0.006246  11.620100   2.758080  10.335100  46.539200  16.300800  40.310400 -18.501200 -16.911600  92.080900 -21.518000  58.442200   6.813420 -26.263600  18.666200  50.660400  48.842400   0.000147  -0.000299  25.551000   0.000799  -0.000700  23.555300   2.117090   4.843510  19.346100   0.003062   0.001233  13.542300   0.040774  -0.008771  89.000000  -0.001675   0.001727  92.336800   0.001897   0.006659  69.252600   0.006327  -0.003854  88.996000  -5.001170  -0.089205  96.293200   0.001683   0.001013  72.220000   0.007052  -0.003695  88.984600 -10.000300  -0.176291 110.000000  -0.006343   0.003454  80.000000  -0.000325   0.003069   2.088480  12.545500   1.963340   0.650041   3.964870  12.000300  -7.806970  -4.727370   0.398543   0.000000   0.000000   0.000000   1.881940  13.882400 -11.096500   0.531909   1.463340  -9.942260  -7.644430  -1.210240  -1.017100   0.000000   0.000000   0.000000
 -1.546770  89.751800   2.152640   0.254292 -12.250600   0.614140   0.985185   6.896450  -0.908406   2.104410  13.775200  -1.958630   0.279207   6.385600  -0.033405   0.475140  12.947700  13.048100  -4.699780  -0.389356   1.703460 -56.396700  19.272700 -52.262700  -2.134850 -12.603100 -81.982500 -26.754500 -62.044700   1.571570  42.727300  27.440800 -64.117400 -11.233400   0.001946   0.007804  -0.616714   0.000662   0.000758  -7.296280  -1.005520   7.835300  -6.025810  -0.003026   0.002095  -4.218070  -0.002587  -0.000079 -30.458400  -4.022370   6.803740 -46.047500   0.004987  -0.002287 -30.667700   0.000656  -0.001380  -6.754150  -1.582910  13.126500  -6.936360  -0.003566   0.003979  -4.619620  -0.004467   0.002526  -7.972550  -2.468130  17.070400 -12.515500  -0.004797   0.000532  -8.335310  -0.002265   0.006264  11.656900   2.697630  10.322600  46.806300  16.188300  40.125200 -18.477400 -16.831100  92.113500 -21.804800  58.509300   6.890690 -26.190000  18.413800  50.879800  48.815700   0.000136  -0.000255  25.480700   0.000795  -0.000630  23.693000   2.201000   5.001750  19.464200   0.003061   0.001245  13.625000   0.030005  -0.008754  89.000000  -0.001700   0.001703  92.531800   0.001898   0.006751  69.398900   0.006346  -0.003860  88.996000  -5.001170  -0.089226  96.495800   0.001679   0.001016  72.371900   0.007093  -0.003695  88.984600 -10.000300  -0.176302 110.000000  -0.006356   0.003463  80.000000  -0.000366   0.003029   2.081040  12.537800   1.966190   0.648634   3.958300  12.035900  -7.793250  -4.725670   0.438793  -0.000000   0.000000   0.000000   1.871230  13.862600 -11.094200   0.519738   1.465760  -9.916130  -7.629890  -1.200880  -0.960009  -0.000000   0.000000  -0.000000
 -1.531130  89.754900   2.134740   0.231905 -12.241700   0.523915   0.984288   6.901270  -0.926406   2.104930  13.784500  -1.995030   0.269295   6.388980  -0.034176   0.458263  12.954500  12.477200  -4.706970  -0.391571   1.689950 -56.473300  19.246100 -52.213300  -2.105360 -12.612600 -81.910400 -26.699200 -62.117400   1.526510  42.680400  27.404400 -64.095400 -11.266200   0.001932   0.007901  -0.633121   0.000662   0.000779  -7.285680  -1.005320   7.841080  -6.017210  -0.003029   0.002095  -4.212050  -0.002593  -0.000058 -30.419100  -4.021570   6.811540 -45.987800   0.005012  -0.002330 -30.627800   0.000709  -0.001360  -6.756450  -1.590770  13.187800  -6.940430  -0.003554   0.003999  -4.622330  -0.004463   0.002526  -7.939110  -2.469080  17.167000 -12.468000  -0.004798   0.000489  -8.303690  -0.002265   0.006281  11.696000   2.630300  10.315900  46.967600  16.149900  39.994300 -18.416800 -16.664500  92.213500 -21.920500  58.536300   6.916950 -26.117700  18.142300  51.128500  48.759500   0.000122  -0.000210  25.380400   0.000791  -0.000557  23.824200   2.318730   5.234760  19.579100   0.003059   0.001260  13.705400   0.012853  -0.008733  89.000000  -0.001728   0.001678  92.735100   0.001899   0.006841  69.551400   0.006366  -0.003868  88.996000  -5.001180  -0.089245  96.703600   0.001675   0.001021  72.527700   0.007132  -0.003694  88.984600 -10.000300  -0.176314 110.000000  -0.006372   0.003474  80.000000  -0.000408   0.002991   2.076860  12.530100   1.970090   0.647439   3.947520  12.075600  -7.779340  -4.723940   0.484527   0.000000   0.000000  -0.000000   1.861920  13.836600 -11.091600   0.508097   1.468950  -9.880980  -7.615160  -1.190440  -0.904061  -0.000000   0.000000   0.000000
 -1.515950  89.757100   2.117980   0.202915 -12.230600   0.421260   0.983897   6.904450  -0.945591   2.106590  13.790500  -2.033860   0.257759   6.392700  -0.034903   0.440580  12.962000  11.940500  -4.713990  -0.386298   1.693440 -56.537100  19.219800 -52.181600  -2.083700 -12.616700 -81.832900 -26.632700 -62.221000   1.492150  42.677100  27.375900 -64.043900 -11.339300   0.001925   0.007994  -0.669667   0.000660   0.000800  -7.254250  -1.005240   7.853660  -5.991660  -0.003029   0.002091  -4.194170  -0.002590  -0.000023 -30.390800  -4.024140   6.823970 -45.946200   0.005028  -0.002375 -30.600100   0.000759  -0.001340  -6.761600  -1.600800  13.258000  -6.947710  -0.003537   0.004025  -4.627170  -0.004448   0.002524  -7.906360  -2.474360  17.271300 -12.423400  -0.004803   0.000451  -8.273980  -0.002259   0.006293  11.724300   2.577650  10.320900  47.014900  16.180100  39.928600 -18.326200 -16.465400  92.378100 -21.810600  58.539800   6.871810 -26.028000  17.753600  51.397200  48.676100   0.000106  -0.000186  25.236800   0.000793  -0.000477  23.924900   2.509000   5.633370  19.682800   0.003061   0.001268  13.777900  -0.001609  -0.008714  89.000000  -0.001748   0.001656  92.933600   0.001892   0.006941  69.700300   0.006385  -0.003876  88.996000  -5.001170  -0.089257  96.902900   0.001666   0.001042  72.677100   0.007166  -0.003698  88.984600 -10.000300  -0.176304 110.000000  -0.006394   0.003489  80.000000  -0.000442   0.002961   2.075590  12.521000   1.980240   0.645840   3.938210  12.116100  -7.764180  -4.722600   0.536332  -0.000000   0.000000  -0.000000   1.848900  13.803600 -11.069800   0.500238   1.477830  -9.838080  -7.600380  -1.177180  -0.861957   0.000000   0.000000   0.000000
